<svg width="32" height="32" viewBox="0 0 32 32" fill="none" xmlns="http://www.w3.org/2000/svg">
  <rect width="32" height="32" rx="8" fill="url(#gradient2)"/>
  <path d="M16 6c-5.5 0-10 4.5-10 10v4c0 2.2 1.8 4 4 4h2v-6h-2v-2c0-3.3 2.7-6 6-6s6 2.7 6 6v2h-2v6h2c2.2 0 4-1.8 4-4v-4c0-5.5-4.5-10-10-10z" fill="rgba(255,255,255,0.9)"/>
  <circle cx="13" cy="15" r="1.5" fill="#5865F2"/>
  <circle cx="19" cy="15" r="1.5" fill="#5865F2"/>
  <path d="M13 19h6" stroke="#5865F2" strokeWidth="2" strokeLinecap="round"/>
  <defs>
    <linearGradient id="gradient2" x1="0%" y1="0%" x2="100%" y2="100%">
      <stop offset="0%" stopColor="#5865F2"/>
      <stop offset="100%" stopColor="#7289da"/>
    </linearGradient>
  </defs>
</svg> 