<?xml version="1.0" encoding="UTF-8"?>
<svg width="512" height="512" viewBox="0 0 512 512" fill="none" xmlns="http://www.w3.org/2000/svg">
  <!-- Background Circle -->
  <circle cx="256" cy="256" r="248" fill="#1E1E2F" stroke="#4F46E5" stroke-width="16"/>
  
  <!-- Abstract User Shape -->
  <path d="M256 128C289.137 128 316 154.863 316 188C316 221.137 289.137 248 256 248C222.863 248 196 221.137 196 188C196 154.863 222.863 128 256 128Z" fill="#4F46E5"/>
  <path d="M384 384C384 348.654 356.444 317.967 316.444 298.815C299.852 290.37 281.481 285.333 262.222 284.148C260.148 284.037 258.074 284 256 284C253.926 284 251.852 284.037 249.778 284.148C230.519 285.333 212.148 290.37 195.556 298.815C155.556 317.967 128 348.654 128 384" stroke="#4F46E5" stroke-width="32" stroke-linecap="round"/>
  
  <!-- Glow Effect -->
  <circle cx="256" cy="256" r="248" stroke="url(#glow)" stroke-width="2" opacity="0.5"/>
  
  <!-- Gradient Definition -->
  <defs>
    <radialGradient id="glow" cx="0" cy="0" r="1" gradientUnits="userSpaceOnUse" gradientTransform="translate(256 256) rotate(90) scale(256)">
      <stop offset="0%" stop-color="#4F46E5" stop-opacity="0.5"/>
      <stop offset="100%" stop-color="#4F46E5" stop-opacity="0"/>
    </radialGradient>
  </defs>
</svg> 